# xmcd
#
# Track frame offsets: 
#        150
#        21775
#        35555
#        59803
#        81343
#        109416
#        134842
#        156826
#        177246
#        191778
#        211332
#        233302
#        247968
#        270486
#        297430
#        322060
#        338666
#
# Disc length: 4775 seconds
#
# Revision: 0
# Processed by: cddbd v1.5.2PL0 Copyright (c) Steve Scherf et al.
# Submitted via: ExactAudioCopy v1.3
#
DISCID=0312a511
DTITLE=Various Artist - Akella Presents - vol. 176 - Various Styles O
DTITLE=f Blues-Relax  CD1
DYEAR=2019
DGENRE=Blues
TTITLE0=Michael van Merwyk - A Soul Ain't Worth a Dime
TTITLE1=Jerry Forney - Slow Suicide
TTITLE2=Scott Ramminger - Lemonade Blues
TTITLE3=Climax Blues Band - The Cat
TTITLE4=The Vazey Collective - Time
TTITLE5=The Dick Powell Band - Good Bye My Lady
TTITLE6=Juniper Inc. - Shotgun
TTITLE7=Eric Clapton - Tears In Heaven
TTITLE8=Uni Debess - Black Magic Woman
TTITLE9=Confederate Railroad   Danny Shirley - Please Come To Boston
TTITLE10=Damon Fowler - Florida Baby
TTITLE11=Dr Harp's Medicine Band - Nobody's Fault but Mine
TTITLE12=Tom Killner - Memories Of You
TTITLE13=Wily Bo Walker - Light At The End Of The Tunnel
TTITLE14=Joanne Shaw Taylor - I'm Only Lonely
TTITLE15=Bonnie Tyler - To The Moon And Back
TTITLE16=Bad Temper Joe - Our Love (For Livia)
EXTD=
EXTT0=
EXTT1=
EXTT2=
EXTT3=
EXTT4=
EXTT5=
EXTT6=
EXTT7=
EXTT8=
EXTT9=
EXTT10=
EXTT11=
EXTT12=
EXTT13=
EXTT14=
EXTT15=
EXTT16=
PLAYORDER=
